# xmcd
#
# Track frame offsets:
#	150
#	4150
#	20755
#	35727
#	52015
#	71730
#	90515
#	104142
#	120817
#	135517
#	156470
#	172357
#	193580
#	210990
#	226745
#	247595
#	267530
#	282342
#
# Disc length: 3867 seconds
#
# Revision: 0
# Processed by: cddbd v1.5PL3 Copyright (c) Steve Scherf et al.
# Submitted via: dBpowerAMP V4.0
#
DISCID=020f1912
DTITLE=Sjef Diederen - De Limburgse Troubadour
DYEAR=1900
DGENRE=Country
TTITLE0=Zingend goan ich door 't laeve
TTITLE1=Num dich d'n tieed
TTITLE2=Hotelke aan de zieeë
TTITLE3=D'r Hein
TTITLE4=Miee dörpke van vreuger
TTITLE5=De monikasjpeler
TTITLE6=De supporters
TTITLE7=Laef, laef, laef
TTITLE8=Broeder Carolus
TTITLE9=Sjterre sjtroale
TTITLE10=Inge
TTITLE11='t Blomemenke
TTITLE12=Doee bôs mich ê vôtje
TTITLE13=Ich hauwd van dich
TTITLE14=D'n auwe koelman
TTITLE15=Angelie
TTITLE16=De mam
TTITLE17=Oos taal
EXTD=De Limburgse Troubadour - Sjef Diederen
EXTT0=
EXTT1=
EXTT2=
EXTT3=
EXTT4=
EXTT5=
EXTT6=
EXTT7=
EXTT8=
EXTT9=
EXTT10=
EXTT11=
EXTT12=
EXTT13=
EXTT14=
EXTT15=
EXTT16=
EXTT17=
PLAYORDER=
